<svg width="140" height="33" viewBox="0 0 140 33" fill="none" xmlns="http://www.w3.org/2000/svg">
<g id="Group 28302">
<g id="Group 28301">
<path id="Vector" d="M41.4764 20.1516C41.4764 21.0886 40.7567 21.8503 39.8713 21.8503H28.904C28.0187 21.8503 27.299 21.0886 27.299 20.1516V13.6401H24.089V20.1516C24.089 21.0886 23.3692 21.8503 22.4839 21.8503H9.90953V13.6401H6.69948V26.8059C6.69948 27.8208 5.92049 28.6453 4.96156 28.6453H0.277344V32.0428H4.95952C7.68908 32.0428 9.90953 29.6927 9.90953 26.8037V25.2478H22.4839C23.7168 25.2478 24.8414 24.7544 25.694 23.9451C26.5466 24.7544 27.6732 25.2478 28.904 25.2478H39.8713C42.5273 25.2478 44.6864 22.9605 44.6864 20.1516V13.6401H41.4764V20.1516Z" fill="white"/>
<path id="Vector_2" d="M44.6827 6.84375H41.4727V10.2412H44.6827V6.84375Z" fill="white"/>
<path id="Vector_3" d="M39.8702 6.84375H36.6602V10.2412H39.8702V6.84375Z" fill="white"/>
<path id="Vector_4" d="M27.2999 6.84375H24.0898V10.2412H27.2999V6.84375Z" fill="white"/>
<path id="Vector_5" d="M22.4874 6.84399H19.2773V10.2415H22.4874V6.84399Z" fill="white"/>
<path id="Vector_6" d="M89.0887 20.1502C89.0887 21.0872 88.369 21.8489 87.4837 21.8489H76.5143C75.629 21.8489 74.9093 21.0872 74.9093 20.1502V6.84375H71.6992V20.1502C71.6992 22.9612 73.8583 25.2464 76.5143 25.2464H87.4837C90.1396 25.2464 92.2987 22.959 92.2987 20.1502V13.6387H89.0887V20.1502Z" fill="white"/>
<path id="Vector_7" d="M59.7999 13.6387H56.5898V17.0361H59.7999V13.6387Z" fill="white"/>
<path id="Vector_8" d="M83.6046 28.6455H80.3945V32.043H83.6046V28.6455Z" fill="white"/>
<path id="Vector_9" d="M98.714 6.84375H95.5039V24.9629H98.714V6.84375Z" fill="white"/>
<path id="Vector_10" d="M93.9049 0.0429688C91.249 0.0429688 89.0898 2.33031 89.0898 5.13918V5.99179H92.2999V5.13918C92.2999 4.20217 93.0196 3.44044 93.9049 3.44044H101.93V0.0429688H93.9049Z" fill="white"/>
<path id="Vector_11" d="M65.2741 26.9451C65.2741 27.8821 64.5544 28.6438 63.6691 28.6438H52.7018C51.8165 28.6438 51.0968 27.8821 51.0968 26.9451V20.4336H47.8867V26.9451C47.8867 29.7561 50.0479 32.0413 52.7018 32.0413H63.6691C66.3251 32.0413 68.4842 29.7539 68.4842 26.9451V13.6387H65.2741V26.9451Z" fill="white"/>
</g>
<g id="Group 28259">
<path id="Vector_12" d="M139.726 0.817949L131.332 13.4826C131.132 13.7826 130.697 13.7826 130.497 13.4826L125.792 6.38781C125.627 6.13781 125.627 5.80782 125.792 5.55783L129.157 0.487957C129.342 0.207965 129.657 0.0429688 129.992 0.0429688H139.306C139.706 0.0429688 139.941 0.487957 139.721 0.817949H139.726Z" fill="white"/>
<path id="Vector_13" d="M139.314 32.0416H129.999C129.664 32.0416 129.349 31.8716 129.164 31.5966L125.8 26.5267C125.635 26.2768 125.635 25.9468 125.8 25.6968L130.504 18.6019C130.704 18.302 131.139 18.302 131.339 18.6019L139.734 31.2666C139.954 31.5966 139.714 32.0416 139.319 32.0416H139.314Z" fill="white"/>
<path id="Vector_14" d="M118.495 0.0429688H109.175C108.775 0.0429688 108.54 0.487957 108.76 0.817949L118.57 15.6276C118.735 15.8776 118.735 16.2026 118.57 16.4576L108.76 31.2672C108.54 31.5972 108.78 32.0422 109.175 32.0422H118.49C118.825 32.0422 119.14 31.8722 119.325 31.5972L129.365 16.4576C129.53 16.2076 129.53 15.8776 129.365 15.6276L119.325 0.487958C119.14 0.207965 118.825 0.0429688 118.49 0.0429688H118.495Z" fill="white"/>
</g>
</g>
</svg>
